#N canvas 944 75 977 758 10;
#X obj 101 118 cnv 15 510 150 empty empty value 100 13 2 17 #f0f0e8
#505410 0;
#X obj 172 143 hsl 100 12 0 1 0 0 \$0-pitch \$0-pitch-r pitch -45 7
0 13 #0c4044 #fcfcfc #0400fc 0 1;
#X obj 280 143 hsl 100 12 0 1 0 0 \$0-pitch-rnd \$0-pitch-rnd-r random/jitter
-4 -12 2 17 #0c4044 #fcfcfc #543410 0 1;
#X obj 171 158 hsl 100 12 0 1 0 0 \$0-duration \$0-duration-r duration
-70 7 0 13 #0c4044 #fcfcfc #0400fc 0 1;
#X obj 280 158 hsl 100 12 0 1 0 0 \$0-duration-rnd \$0-duration-rnd-r
empty -2 -6 0 10 #0c4044 #fcfcfc #000000 0 1;
#X obj 168 175 hsl 100 12 0 1 0 0 \$0-delay \$0-delay-r delay -45 7
0 13 #0c4044 #fcfcfc #0400fc 0 1;
#X obj 279 173 hsl 100 12 0 1 0 0 \$0-delay-rnd \$0-delay-rnd-r empty
-2 -6 0 10 #0c4044 #fcfcfc #000000 0 1;
#X obj 171 189 hsl 100 12 0 1 0 0 \$0-metro \$0-metro-r metro -45 7
0 13 #0c4044 #fcfcfc #0400fc 9900 1;
#X obj 280 189 hsl 100 12 0 1 0 0 \$0-metro-rnd \$0-metro-rnd-r empty
-2 -6 0 10 #0c4044 #fcfcfc #000000 5900 1;
#X obj 500 143 hsl 100 12 0 1 0 0 \$0-envelope \$0-envelope-r empty
-2 -6 0 10 #0c4044 #fcfcfc #000000 3800 1;
#X text 529 168 envelope;
#X obj 500 158 hsl 100 12 0 1 0 0 \$0-envelope-exp \$0-envelope-exp-r
empty -2 -6 0 10 #0c4044 #fcfcfc #000000 8700 1;
#X obj 452 201 hradio 15 1 0 10 \$0-load \$0-load-r preset -45 7 0
12 #a8d4ec #fcfcfc #000000 0;
#X obj 506 183 bng 15 250 50 0 \$0-store rwiuytiuwytriu store 18 8
0 10 #fcfcfc #000000 #000000;
#X obj 557 183 bng 15 250 50 0 \$0-save troiuyiurtyiutwr save 18 8
0 10 #fcfcfc #000000 #000000;
#X obj 468 121 cnv 15 140 17 empty empty grannie_basher 0 8 0 16 #fc00ec
#fcfcfc 0;
#X text 127 32 delay line granulizer;
#X text 136 48 hard.off@gmail.com;
#X obj 171 204 hsl 100 12 0 1 0 0 \$0-vcf \$0-vcf-r filter -52 7 0
13 #0c4044 #fcfcfc #0400fc 0 1;
#X obj 171 234 hsl 100 12 0 1 0 0 \$0-feedback \$0-feedback-r feedback
-68 7 0 13 #0c4044 #fcfcfc #0400fc 0 1;
#X obj 388 234 hsl 100 12 0 1 0 0 \$0-feedback-time \$0-feedback-time-r
empty -2 -6 0 10 #0c4044 #fcfcfc #000000 0 1;
#X obj 280 234 hsl 100 12 0 1 0 0 \$0-feedback-rnd \$0-feedback-rnd-r
empty -2 -6 0 10 #0c4044 #fcfcfc #000000 0 1;
#X text 385 218 feedback time;
#X obj 280 203 hsl 100 12 0 1 0 0 \$0-vcf-rnd \$0-vcf-rnd-r empty -2
-6 0 10 #0c4044 #fcfcfc #000000 0 1;
#X obj 496 234 hsl 100 12 0 1 0 0 \$0-feedback-return \$0-feedback-return-r
empty -2 -6 0 10 #0c4044 #fcfcfc #000000 0 1;
#X text 493 218 feedback return;
#X obj 171 219 hsl 100 12 0 1 0 0 \$0-autopan \$0-autopan-r autopan
-60 7 0 13 #0c4044 #fcfcfc #0400fc 2200 1;
#X obj 280 219 hsl 100 12 0 1 0 0 \$0-autopan-rnd \$0-autopan-rnd-r
empty -2 -6 0 10 #0c4044 #fcfcfc #000000 0 1;
#X obj 171 249 hsl 100 12 0 1 0 0 \$0-feedback-lfo \$0-feedback-lfo-r
fb-lfo -52 7 0 13 #0c4044 #fcfcfc #0400fc 0 1;
#X obj 280 249 hsl 100 12 0 1 0 0 \$0-feedback-lfo-rnd \$0-feedback-lfo-rnd-r
empty -2 -6 0 10 #0c4044 #fcfcfc #000000 0 1;
#X obj 388 249 hsl 100 12 0 1 0 0 \$0-feedback-lfo-depth \$0-feedback-lfo-depth-r
empty -2 -6 0 10 #0c4044 #fcfcfc #000000 0 1;
#N canvas 0 22 450 300 (subpatch) 0;
#X array \$0-env 100 float 0 black black;
#X coords 0 1 99 0 100 40 1;
#X restore 393 143 graph;
#X text 490 248 <--depth;
#X obj 48 243 inlet~;
#X obj 28 590 outlet~;
#X obj 24 617 outlet~;
#X obj 124 334 delwrite~ \$0-L-delayline 10000;
#X obj 47 268 inlet~;
#X obj 313 333 delwrite~ \$0-R-delayline 10000;
#X obj 588 571 grandma 12 \$0 \$0-L;
#X obj 497 448 grandma 0 \$0 \$0-L;
#X obj 604 592 grandma 14 \$0 \$0-L;
#X obj 575 551 grandma 10 \$0 \$0-L;
#X obj 529 489 grandma 4 \$0 \$0-L;
#X obj 735 591 grandma 15 \$0 \$0-R;
#X obj 558 510 grandma 6 \$0 \$0-L;
#X obj 516 468 grandma 2 \$0 \$0-L;
#X obj 557 531 grandma 8 \$0 \$0-L;
#X obj 639 444 grandma 1 \$0 \$0-R;
#X obj 648 467 grandma 3 \$0 \$0-R;
#X obj 660 489 grandma 5 \$0 \$0-R;
#X obj 677 508 grandma 7 \$0 \$0-R;
#X obj 689 529 grandma 9 \$0 \$0-R;
#X obj 706 549 grandma 11 \$0 \$0-R;
#X obj 720 572 grandma 13 \$0 \$0-R;
#X obj 550 258 hsl 60 10 0 1 0 0 \$0-mix \$0-mix-r mix 17 -6 0 12 #101054
#fcfcfc #0400fc 5900 1;
#X obj 67 452 *~;
#X obj 94 452 *~;
#X obj 180 526 *~;
#X obj 275 524 *~;
#X obj 276 503 catch~ \$0-Right;
#X obj 229 406 line~;
#X msg 227 385 \$1 20;
#X obj 160 409 -~ 1;
#X obj 160 429 *~ -1;
#X obj 160 448 *~ 2;
#X obj 162 469 min~ 1;
#X obj 242 440 *~ 2;
#X obj 241 461 min~ 1;
#X obj 330 371 receive fromGUI;
#X obj 329 395 list trim;
#X obj 326 418 route /mySlider;
#X obj 397 7 loadbang;
#X msg 399 31 \; pd dsp 1;
#X obj 148 287 adc~;
#X obj 141 632 dac~;
#N canvas 938 159 721 715 code 0;
#N canvas 0 22 454 304 untils 0;
#X obj 261 160 f;
#X obj 288 162 + 1;
#X obj 261 138 until;
#X msg 299 132 0;
#X obj 261 107 t f b;
#X obj 261 78 inlet;
#X obj 261 190 outlet;
#X connect 0 0 1 0;
#X connect 0 0 6 0;
#X connect 1 0 0 1;
#X connect 2 0 0 0;
#X connect 3 0 0 1;
#X connect 4 0 2 0;
#X connect 4 1 3 0;
#X connect 5 0 4 0;
#X restore 29 137 pd untils;
#X msg 31 112 100;
#X obj 57 195 moses 50;
#X obj 60 222 / 50;
#X obj 29 166 t f f;
#X obj 60 445 pack 0 0;
#X obj 102 217 - 100;
#X obj 103 238 abs;
#X obj 103 259 / 50;
#X obj 139 217 - 100;
#X obj 140 238 abs;
#X obj 63 108 t b f;
#X obj 104 291 expr (0.5 * $f1) + 0.5;
#X obj 103 335 cos;
#X obj 103 316 * 6.28318;
#X obj 103 356 * 0.5;
#X obj 103 376 + 0.5;
#X obj 59 468 s \$0-env;
#X obj 64 64 * 90;
#X obj 61 86 + 5;
#X msg 369 452 \; \$1-go bang;
#X obj 386 417 f;
#X obj 437 421 + 1;
#X obj 471 426 mod 16;
#X obj 512 324 * 10000;
#X obj 411 266 * 1000;
#X obj 411 244 clip 0.01 1;
#X obj 514 279 pow 3;
#X obj 420 201 pow 3;
#X obj 377 314 delay;
#X obj 324 261 loadbang;
#X msg 374 291 stop;
#X msg 301 217 bang;
#X msg 337 218 stop;
#X obj 376 363 t b b b;
#X obj 376 343 metro 1000;
#X obj 467 350 random 0;
#X obj 157 371 t b f;
#X obj 102 404 pow 1;
#X obj 183 393 + 1;
#X obj 183 414 pow 4;
#X obj 598 102 r \$0-load;
#N canvas 0 22 454 304 untils 0;
#X obj 261 160 f;
#X obj 288 162 + 1;
#X obj 261 138 until;
#X msg 299 132 0;
#X obj 261 107 t f b;
#X obj 261 78 inlet;
#X obj 261 190 outlet;
#X connect 0 0 1 0;
#X connect 0 0 6 0;
#X connect 1 0 0 1;
#X connect 2 0 0 0;
#X connect 3 0 0 1;
#X connect 4 0 2 0;
#X connect 4 1 3 0;
#X connect 5 0 4 0;
#X restore 631 185 pd untils;
#X obj 631 134 t b f;
#X obj 670 251 tabread \$0-allpreset;
#X obj 631 210 t f f;
#X obj 608 272 pack 0 0;
#X obj 751 373 s \$0-envelope-r;
#X obj 751 393 s \$0-envelope-exp-r;
#X obj 658 230 +;
#N canvas 0 22 454 304 untils 0;
#X obj 261 160 f;
#X obj 288 162 + 1;
#X obj 261 138 until;
#X msg 299 132 0;
#X obj 261 107 t f b;
#X obj 261 78 inlet;
#X obj 261 190 outlet;
#X connect 0 0 1 0;
#X connect 0 0 6 0;
#X connect 1 0 0 1;
#X connect 2 0 0 0;
#X connect 3 0 0 1;
#X connect 4 0 2 0;
#X connect 4 1 3 0;
#X connect 5 0 4 0;
#X restore 804 156 pd untils;
#X obj 804 181 t f f;
#X obj 795 105 r \$0-store;
#X obj 850 205 tabread \$0-preset;
#X obj 805 229 pack 0 0;
#X obj 804 249 s \$0-storehouse;
#X text 791 9 LOAD/SavE PreseTS;
#X obj 409 391 delay;
#X obj 467 371 / 10;
#X obj 445 290 t b f;
#X obj 627 11 table \$0-preset 22;
#X obj 786 49 table \$0-storehouse 22;
#X msg 630 163 22;
#X obj 659 164 * 22;
#X msg 803 135 22;
#X obj 632 296 route 0 1 2 3 4 5 6 7 8 9 10 11 12 13 14 15 16 17 18
19 20 21;
#N canvas 444 310 808 695 get-sliders 0;
#X obj 28 76 r \$0-pitch;
#X msg 28 140 0 \$1;
#X obj 28 162 s \$0-preset;
#X obj 97 119 r \$0-pitch-rnd;
#X obj 102 161 s \$0-preset;
#X msg 102 139 1 \$1;
#X obj 29 226 s \$0-preset;
#X obj 121 227 s \$0-preset;
#X obj 29 183 r \$0-duration;
#X obj 116 185 r \$0-duration-rnd;
#X msg 28 203 2 \$1;
#X msg 121 205 3 \$1;
#X obj 28 291 s \$0-preset;
#X obj 102 290 s \$0-preset;
#X obj 29 355 s \$0-preset;
#X obj 121 356 s \$0-preset;
#X obj 28 248 r \$0-delay;
#X obj 96 248 r \$0-delay-rnd;
#X msg 27 269 4 \$1;
#X msg 101 267 5 \$1;
#X obj 29 312 r \$0-metro;
#X obj 116 314 r \$0-metro-rnd;
#X msg 27 331 6 \$1;
#X msg 122 334 7 \$1;
#X obj 27 421 s \$0-preset;
#X obj 119 422 s \$0-preset;
#X obj 27 378 r \$0-envelope;
#X msg 28 399 8 \$1;
#X obj 114 379 r \$0-envelope-exp;
#X msg 120 399 9 \$1;
#X obj 270 123 r \$0-vcf;
#X obj 305 154 r \$0-vcf-rnd;
#X obj 304 181 r \$0-autopan;
#X obj 306 210 r \$0-autopan-rnd;
#X obj 323 240 r \$0-feedback-lfo;
#X obj 332 264 r \$0-feedback-lfo-rnd;
#X obj 343 287 r \$0-feedback-lfo-depth;
#X obj 414 132 r \$0-feedback;
#X obj 422 155 r \$0-feedback-rnd;
#X obj 434 180 r \$0-feedback-time;
#X obj 445 205 r \$0-feedback-return;
#X msg 284 335 10 \$1;
#X msg 328 332 11 \$1;
#X msg 371 333 12 \$1;
#X msg 411 336 13 \$1;
#X msg 456 338 14 \$1;
#X msg 500 340 15 \$1;
#X msg 283 366 16 \$1;
#X msg 327 361 17 \$1;
#X msg 370 367 18 \$1;
#X msg 416 368 19 \$1;
#X msg 462 369 20 \$1;
#X msg 503 369 21 \$1;
#X obj 531 272 r \$0-mix;
#X obj 367 454 s \$0-preset;
#X floatatom 55 101 5 0 0 0 - - -, f 5;
#X floatatom 283 144 5 0 0 0 - - -, f 5;
#X connect 0 0 1 0;
#X connect 0 0 55 0;
#X connect 1 0 2 0;
#X connect 3 0 5 0;
#X connect 5 0 4 0;
#X connect 8 0 10 0;
#X connect 9 0 11 0;
#X connect 10 0 6 0;
#X connect 11 0 7 0;
#X connect 16 0 18 0;
#X connect 17 0 19 0;
#X connect 18 0 12 0;
#X connect 19 0 13 0;
#X connect 20 0 22 0;
#X connect 21 0 23 0;
#X connect 22 0 14 0;
#X connect 23 0 15 0;
#X connect 26 0 27 0;
#X connect 27 0 24 0;
#X connect 28 0 29 0;
#X connect 29 0 25 0;
#X connect 30 0 41 0;
#X connect 30 0 56 0;
#X connect 31 0 42 0;
#X connect 32 0 43 0;
#X connect 33 0 44 0;
#X connect 34 0 49 0;
#X connect 35 0 50 0;
#X connect 36 0 51 0;
#X connect 37 0 45 0;
#X connect 38 0 46 0;
#X connect 39 0 47 0;
#X connect 40 0 48 0;
#X connect 41 0 54 0;
#X connect 42 0 54 0;
#X connect 43 0 54 0;
#X connect 44 0 54 0;
#X connect 45 0 54 0;
#X connect 46 0 54 0;
#X connect 47 0 54 0;
#X connect 48 0 54 0;
#X connect 49 0 54 0;
#X connect 50 0 54 0;
#X connect 51 0 54 0;
#X connect 52 0 54 0;
#X connect 53 0 52 0;
#X restore 1020 329 pd get-sliders;
#X obj 821 331 s \$0-autopan-r;
#X obj 824 356 s \$0-autopan-rnd-r;
#X obj 1351 616 s \$0-mix-r;
#N canvas 0 22 454 304 untils 0;
#X obj 261 160 f;
#X obj 288 162 + 1;
#X obj 261 138 until;
#X msg 299 132 0;
#X obj 261 107 t f b;
#X obj 261 78 inlet;
#X obj 261 190 outlet;
#X connect 0 0 1 0;
#X connect 0 0 6 0;
#X connect 1 0 0 1;
#X connect 2 0 0 0;
#X connect 3 0 0 1;
#X connect 4 0 2 0;
#X connect 4 1 3 0;
#X connect 5 0 4 0;
#X restore 1064 111 pd untils;
#X obj 1064 136 t f f;
#X obj 1065 202 pack 0 0;
#X obj 1066 169 +;
#X obj 1106 177 tabread \$0-storehouse;
#X obj 1063 224 s \$0-allpreset;
#X obj 956 8 r \$0-save;
#X obj 1020 304 s \$0-allpreset;
#X msg 1018 276 write grannie.txt;
#X obj 1028 64 t b b b f;
#X obj 1051 250 s \$0-load-r;
#X obj 1028 38 f;
#X obj 1065 3 r \$0-load;
#X msg 1063 90 22;
#X obj 1092 90 * 22;
#X obj 326 566 s \$0-allpreset;
#X msg 324 538 read grannie.txt;
#X obj 303 496 loadbang;
#X obj 301 516 t b b;
#X obj 309 615 s \$0-load-r;
#X obj 624 36 table \$0-allpreset 220;
#X floatatom 505 215 5 0 0 0 - - -, f 5;
#X obj 383 33 receive fromGUI;
#X obj 419 80 list trim;
#X obj 438 119 route /myKnob16 /myKnob17;
#X obj 553 72 route /myPreset;
#X obj 674 70 route /myButton1 /myButton2;
#X obj 156 6 receive fromGUI;
#X obj 198 27 list trim;
#X obj 209 47 route /myXYSlider;
#X obj 230 71 unpack 0 0;
#X obj 377 661 send toGUI;
#X msg 468 561 list /myKnob2 \$1;
#X obj 535 423 * 127;
#X obj 575 422 * 127;
#X obj 536 450 * 127;
#X obj 575 449 * 127;
#X msg 469 587 list /myKnob1 \$1;
#X msg 469 614 list /myKnob4 \$1;
#X msg 469 640 list /myKnob3 \$1;
#X obj 629 420 * 127;
#X obj 669 419 * 127;
#X obj 630 447 * 127;
#X obj 669 446 * 127;
#X msg 564 695 list /myKnob6 \$1;
#X msg 565 721 list /myKnob5 \$1;
#X msg 565 748 list /myKnob17 \$1;
#X msg 565 774 list /myKnob16 \$1;
#X obj 737 423 * 127;
#X obj 778 421 * 127;
#X obj 834 418 * 127;
#X obj 874 418 * 127;
#X obj 835 447 * 127;
#X obj 874 446 * 127;
#X obj 938 418 * 127;
#X obj 978 417 * 127;
#X obj 939 445 * 127;
#X obj 1028 415 * 127;
#X msg 781 647 list /myKnob8 \$1;
#X msg 782 673 list /myKnob7 \$1;
#X msg 830 504 list /myKnob10 \$1;
#X msg 831 530 list /myKnob9 \$1;
#X msg 831 557 list /myKnob12 \$1;
#X msg 831 583 list /myKnob11 \$1;
#X msg 1123 443 list /myKnob14 \$1;
#X msg 1124 469 list /myKnob13 \$1;
#X msg 1124 496 list /myKnob15 \$1;
#X msg 1157 575 list /mySlider \$1;
#X obj 427 170 / 127;
#X obj 535 162 / 127;
#X connect 0 0 4 0;
#X connect 1 0 0 0;
#X connect 2 0 3 0;
#X connect 2 1 6 0;
#X connect 3 0 12 0;
#X connect 4 0 5 0;
#X connect 4 1 2 0;
#X connect 5 0 17 0;
#X connect 6 0 7 0;
#X connect 7 0 8 0;
#X connect 8 0 12 0;
#X connect 9 0 10 0;
#X connect 10 0 8 1;
#X connect 11 0 1 0;
#X connect 11 1 9 0;
#X connect 11 1 2 1;
#X connect 11 1 3 1;
#X connect 12 0 14 0;
#X connect 13 0 15 0;
#X connect 14 0 13 0;
#X connect 15 0 16 0;
#X connect 16 0 38 0;
#X connect 18 0 19 0;
#X connect 19 0 11 0;
#X connect 21 0 22 0;
#X connect 21 0 20 0;
#X connect 22 0 23 0;
#X connect 23 0 21 1;
#X connect 24 0 36 1;
#X connect 25 0 29 0;
#X connect 25 0 35 1;
#X connect 25 0 59 0;
#X connect 26 0 25 0;
#X connect 27 0 24 0;
#X connect 28 0 26 0;
#X connect 28 0 91 0;
#X connect 29 0 35 0;
#X connect 30 0 35 0;
#X connect 31 0 29 0;
#X connect 32 0 35 0;
#X connect 33 0 35 0;
#X connect 34 0 31 0;
#X connect 34 1 57 0;
#X connect 34 2 36 0;
#X connect 35 0 34 0;
#X connect 36 0 58 0;
#X connect 37 0 1 0;
#X connect 37 1 39 0;
#X connect 38 0 5 1;
#X connect 39 0 40 0;
#X connect 40 0 38 1;
#X connect 41 0 43 0;
#X connect 42 0 45 0;
#X connect 43 0 62 0;
#X connect 43 1 63 0;
#X connect 44 0 46 1;
#X connect 45 0 46 0;
#X connect 45 1 49 0;
#X connect 46 0 65 0;
#X connect 49 0 44 0;
#X connect 50 0 51 0;
#X connect 51 0 54 0;
#X connect 51 1 53 0;
#X connect 52 0 64 0;
#X connect 53 0 54 1;
#X connect 54 0 55 0;
#X connect 57 0 21 0;
#X connect 58 0 57 1;
#X connect 59 0 24 0;
#X connect 59 1 24 1;
#X connect 62 0 42 0;
#X connect 63 0 49 1;
#X connect 64 0 50 0;
#X connect 65 0 103 0;
#X connect 65 1 104 0;
#X connect 65 2 105 0;
#X connect 65 3 106 0;
#X connect 65 4 110 0;
#X connect 65 5 111 0;
#X connect 65 6 112 0;
#X connect 65 7 113 0;
#X connect 65 8 47 0;
#X connect 65 9 48 0;
#X connect 65 10 118 0;
#X connect 65 11 119 0;
#X connect 65 12 67 0;
#X connect 65 13 68 0;
#X connect 65 14 120 0;
#X connect 65 15 121 0;
#X connect 65 16 122 0;
#X connect 65 17 123 0;
#X connect 65 18 124 0;
#X connect 65 19 125 0;
#X connect 65 20 126 0;
#X connect 65 21 69 0;
#X connect 65 21 127 0;
#X connect 70 0 71 0;
#X connect 71 0 73 0;
#X connect 71 1 74 0;
#X connect 72 0 75 0;
#X connect 73 0 72 0;
#X connect 74 0 72 1;
#X connect 76 0 81 0;
#X connect 78 0 77 0;
#X connect 79 0 78 0;
#X connect 79 1 80 0;
#X connect 79 2 83 0;
#X connect 79 3 84 0;
#X connect 81 0 79 0;
#X connect 82 0 81 1;
#X connect 83 0 70 0;
#X connect 84 0 73 1;
#X connect 86 0 85 0;
#X connect 87 0 88 0;
#X connect 88 0 89 0;
#X connect 88 1 86 0;
#X connect 92 0 93 0;
#X connect 93 0 94 0;
#X connect 93 0 95 0;
#X connect 93 0 96 0;
#X connect 94 0 138 0;
#X connect 94 1 139 0;
#X connect 95 0 43 0;
#X connect 96 0 64 0;
#X connect 96 1 81 0;
#X connect 97 0 98 0;
#X connect 98 0 99 0;
#X connect 99 0 100 0;
#X connect 100 0 18 0;
#X connect 100 1 37 0;
#X connect 102 0 101 0;
#X connect 104 0 107 0;
#X connect 105 0 108 0;
#X connect 106 0 109 0;
#X connect 107 0 101 0;
#X connect 108 0 101 0;
#X connect 109 0 101 0;
#X connect 110 0 114 0;
#X connect 111 0 115 0;
#X connect 112 0 116 0;
#X connect 113 0 117 0;
#X connect 114 0 101 0;
#X connect 115 0 101 0;
#X connect 116 0 101 0;
#X connect 117 0 101 0;
#X connect 118 0 128 0;
#X connect 119 0 129 0;
#X connect 120 0 130 0;
#X connect 121 0 131 0;
#X connect 122 0 132 0;
#X connect 123 0 133 0;
#X connect 124 0 134 0;
#X connect 125 0 135 0;
#X connect 126 0 136 0;
#X connect 127 0 137 0;
#X connect 130 0 101 0;
#X connect 131 0 101 0;
#X connect 132 0 101 0;
#X connect 133 0 101 0;
#X connect 134 0 101 0;
#X connect 135 0 101 0;
#X connect 136 0 101 0;
#X connect 137 0 101 0;
#X connect 138 0 28 0;
#X connect 139 0 27 0;
#X restore 514 380 pd code;
#X obj 333 441 / 127;
#X obj 180 503 catch~ \$0-Left;
#X connect 56 0 75 0;
#X connect 57 0 75 1;
#X connect 58 0 75 0;
#X connect 59 0 75 1;
#X connect 60 0 59 0;
#X connect 61 0 63 0;
#X connect 61 0 67 0;
#X connect 62 0 61 0;
#X connect 63 0 64 0;
#X connect 64 0 65 0;
#X connect 65 0 66 0;
#X connect 66 0 57 1;
#X connect 66 0 56 1;
#X connect 67 0 68 0;
#X connect 68 0 58 1;
#X connect 68 0 59 1;
#X connect 69 0 70 0;
#X connect 70 0 71 0;
#X connect 71 0 77 0;
#X connect 72 0 73 0;
#X connect 74 0 56 0;
#X connect 74 0 36 0;
#X connect 74 1 57 0;
#X connect 74 1 38 0;
#X connect 77 0 62 0;
#X connect 78 0 58 0;
#X coords 0 -1 1 1 713 144 1 100 100;
